<svg width="73" height="73" viewBox="0 0 73 73" fill="none" xmlns="http://www.w3.org/2000/svg">
<path d="M66.3125 16.0765C66.7221 16.313 67.071 16.6418 67.3313 17.0367C67.5916 17.4317 67.7562 17.8819 67.812 18.3516L67.8333 18.7105V58.2522C67.8333 58.7861 67.6928 59.3106 67.4258 59.773C67.1588 60.2354 66.7749 60.6194 66.3125 60.8863C65.8501 61.1533 65.3256 61.2938 64.7916 61.2938C64.2577 61.2938 63.7332 61.1533 63.2708 60.8863C59.8244 58.8962 55.9425 57.7818 51.9653 57.6408C47.9881 57.4997 44.0371 58.3363 40.4583 60.0772V13.923C44.66 12.3535 49.1568 11.7327 53.6265 12.105C58.0963 12.4773 62.4284 13.8335 66.3125 16.0765ZM34.375 13.926L34.378 60.0803C30.9404 58.4068 27.1567 57.5669 23.3338 57.6287C19.5109 57.6905 15.7564 58.6523 12.3746 60.4361L11.38 60.9836L11.0667 61.1175L10.9177 61.1661L10.5831 61.2452L10.3975 61.2756L10.0417 61.2939H9.91392L9.57933 61.2574L9.34512 61.2148L9.01663 61.1175L8.63337 60.9471L8.34442 60.7768L8.07371 60.573L7.89121 60.4027L7.66917 60.1533L7.4745 59.8825L7.40758 59.773L7.31025 59.5905L7.17642 59.2773L7.12775 59.1282L7.04867 58.7936L7.01825 58.6081L7.00608 58.459L7 18.7105C7.00001 18.1766 7.14056 17.6521 7.40753 17.1898C7.67449 16.7274 8.05845 16.3434 8.52083 16.0765C12.4052 13.834 16.7374 12.4783 21.2071 12.1065C25.6769 11.7347 30.1735 12.3561 34.375 13.926Z" fill="#888484"/>
</svg>
