<svg width="22" height="28" viewBox="0 0 22 28" fill="none" xmlns="http://www.w3.org/2000/svg">
<path d="M2.75 27.5C1.99375 27.5 1.34658 27.231 0.8085 26.6929C0.270416 26.1548 0.000916667 25.5072 0 24.75V2.75C0 1.99375 0.2695 1.34658 0.8085 0.8085C1.3475 0.270417 1.99467 0.000916667 2.75 0H19.25C20.0063 0 20.6539 0.2695 21.1929 0.8085C21.7319 1.3475 22.0009 1.99467 22 2.75V24.75C22 25.5063 21.731 26.1539 21.1929 26.6929C20.6548 27.2319 20.0072 27.5009 19.25 27.5H2.75ZM9.625 12.375L13.0625 10.3125L16.5 12.375V2.75H9.625V12.375Z" fill="currentColor"/>
</svg>
