<svg width="31" height="31" viewBox="0 0 31 31" fill="none" xmlns="http://www.w3.org/2000/svg">
<path d="M8.30412 2.90625C8.56105 2.90625 8.80746 3.00831 8.98913 3.18999C9.17081 3.37167 9.27287 3.61807 9.27287 3.875V7.44258H12.732C12.8592 7.44258 12.9851 7.46764 13.1027 7.51633C13.2202 7.56501 13.327 7.63637 13.417 7.72632C13.5069 7.81628 13.5783 7.92308 13.627 8.04061C13.6757 8.15814 13.7007 8.28412 13.7007 8.41133C13.7007 8.53855 13.6757 8.66452 13.627 8.78206C13.5783 8.89959 13.5069 9.00639 13.417 9.09634C13.327 9.1863 13.2202 9.25766 13.1027 9.30634C12.9851 9.35503 12.8592 9.38008 12.732 9.38008H9.27417V12.9477C9.27417 13.2046 9.1721 13.451 8.99043 13.6327C8.80875 13.8144 8.56234 13.9164 8.30542 13.9164C8.04849 13.9164 7.80208 13.8144 7.62041 13.6327C7.43873 13.451 7.33667 13.2046 7.33667 12.9477V9.38008H3.875C3.61807 9.38008 3.37167 9.27802 3.18999 9.09634C3.00831 8.91467 2.90625 8.66826 2.90625 8.41133C2.90625 8.15441 3.00831 7.908 3.18999 7.72632C3.37167 7.54465 3.61807 7.44258 3.875 7.44258H7.33537V3.875C7.33537 3.61807 7.43744 3.37167 7.61911 3.18999C7.80079 3.00831 8.0472 2.90625 8.30412 2.90625ZM18.4062 5.57613C18.4062 5.3192 18.5083 5.07279 18.69 4.89112C18.8717 4.70944 19.1181 4.60738 19.375 4.60738H27.125C27.3819 4.60738 27.6283 4.70944 27.81 4.89112C27.9917 5.07279 28.0938 5.3192 28.0938 5.57613C28.0938 5.83305 27.9917 6.07946 27.81 6.26113C27.6283 6.44281 27.3819 6.54488 27.125 6.54488H19.375C19.1181 6.54488 18.8717 6.44281 18.69 6.26113C18.5083 6.07946 18.4062 5.83305 18.4062 5.57613ZM18.4062 11.2465C18.4062 10.9896 18.5083 10.7432 18.69 10.5615C18.8717 10.3799 19.1181 10.2778 19.375 10.2778H27.125C27.3819 10.2778 27.6283 10.3799 27.81 10.5615C27.9917 10.7432 28.0938 10.9896 28.0938 11.2465C28.0938 11.5035 27.9917 11.7499 27.81 11.9316C27.6283 12.1132 27.3819 12.2153 27.125 12.2153H19.375C19.1181 12.2153 18.8717 12.1132 18.69 11.9316C18.5083 11.7499 18.4062 11.5035 18.4062 11.2465ZM19.4732 20.0157C19.657 19.8365 19.9045 19.7376 20.1612 19.7407C20.4179 19.7439 20.6629 19.8488 20.8423 20.0325L23.2823 22.5305L25.7197 20.0325C25.8085 19.9414 25.9145 19.8687 26.0315 19.8185C26.1485 19.7684 26.2742 19.7418 26.4014 19.7402C26.5287 19.7387 26.655 19.7622 26.7732 19.8095C26.8913 19.8567 26.999 19.9268 27.0901 20.0157C27.1812 20.1046 27.2539 20.2105 27.304 20.3275C27.3542 20.4445 27.3808 20.5702 27.3824 20.6974C27.3839 20.8247 27.3604 20.951 27.3131 21.0692C27.2659 21.1873 27.1958 21.295 27.1069 21.3861L24.636 23.9178L27.1069 26.4482C27.1958 26.5393 27.2659 26.647 27.3131 26.7651C27.3604 26.8833 27.3839 27.0096 27.3824 27.1369C27.3808 27.2641 27.3542 27.3898 27.304 27.5068C27.2539 27.6238 27.1812 27.7297 27.0901 27.8186C26.999 27.9075 26.8913 27.9776 26.7732 28.0248C26.655 28.0721 26.5287 28.0956 26.4014 28.0941C26.2742 28.0925 26.1485 28.0659 26.0315 28.0158C25.9145 27.9656 25.8085 27.8929 25.7197 27.8018L23.2823 25.3038L20.8436 27.8018C20.7547 27.8929 20.6488 27.9656 20.5318 28.0158C20.4148 28.0659 20.2891 28.0925 20.1619 28.0941C20.0346 28.0956 19.9083 28.0721 19.7901 28.0248C19.672 27.9776 19.5643 27.9075 19.4732 27.8186C19.3821 27.7297 19.3094 27.6238 19.2592 27.5068C19.2091 27.3898 19.1825 27.2641 19.1809 27.1369C19.1794 27.0096 19.2029 26.8833 19.2502 26.7651C19.2974 26.647 19.3675 26.5393 19.4564 26.4482L21.9286 23.9165L19.4564 21.3848C19.2772 21.201 19.1783 20.9535 19.1814 20.6968C19.1846 20.4401 19.2895 20.1951 19.4732 20.0157ZM3.46167 23.7227C3.46167 23.4658 3.56373 23.2194 3.74541 23.0377C3.92708 22.8561 4.17349 22.754 4.43042 22.754H12.1804C12.4373 22.754 12.6838 22.8561 12.8654 23.0377C13.0471 23.2194 13.1492 23.4658 13.1492 23.7227C13.1492 23.9797 13.0471 24.2261 12.8654 24.4078C12.6838 24.5894 12.4373 24.6915 12.1804 24.6915H4.43042C4.17349 24.6915 3.92708 24.5894 3.74541 24.4078C3.56373 24.2261 3.46167 23.9797 3.46167 23.7227Z" fill="currentColor"/>
</svg>
