<svg width="34" height="34" viewBox="0 0 34 34" fill="none" xmlns="http://www.w3.org/2000/svg">
<path d="M7.0835 4.25H25.5002C26.6273 4.25 27.7083 4.69777 28.5054 5.4948C29.3024 6.29183 29.7502 7.37283 29.7502 8.5V26.9167C29.7502 28.0438 29.3024 29.1248 28.5054 29.9219C27.7083 30.7189 26.6273 31.1667 25.5002 31.1667H7.0835C5.95633 31.1667 4.87532 30.7189 4.07829 29.9219C3.28126 29.1248 2.8335 28.0438 2.8335 26.9167V8.5C2.8335 7.37283 3.28126 6.29183 4.07829 5.4948C4.87532 4.69777 5.95633 4.25 7.0835 4.25ZM7.0835 5.66667C6.33205 5.66667 5.61138 5.96518 5.08003 6.49653C4.54867 7.02788 4.25016 7.74855 4.25016 8.5V12.75H11.3335V5.66667H7.0835ZM4.25016 26.9167C4.25016 27.6681 4.54867 28.3888 5.08003 28.9201C5.61138 29.4515 6.33205 29.75 7.0835 29.75H11.3335V22.6667H4.25016V26.9167ZM11.3335 14.1667H4.25016V21.25H11.3335V14.1667ZM25.5002 29.75C26.2516 29.75 26.9723 29.4515 27.5036 28.9201C28.035 28.3888 28.3335 27.6681 28.3335 26.9167V22.6667H21.2502V29.75H25.5002ZM28.3335 14.1667H21.2502V21.25H28.3335V14.1667ZM28.3335 8.5C28.3335 7.74855 28.035 7.02788 27.5036 6.49653C26.9723 5.96518 26.2516 5.66667 25.5002 5.66667H21.2502V12.75H28.3335V8.5ZM12.7502 5.66667V12.75H19.8335V5.66667H12.7502ZM12.7502 29.75H19.8335V22.6667H12.7502V29.75ZM19.8335 14.1667H12.7502V21.25H19.8335V14.1667Z" fill="currentColor"/>
</svg>
