<svg width="32" height="32" viewBox="0 0 32 32" fill="none" xmlns="http://www.w3.org/2000/svg">
<path d="M15.9998 29.3332C14.1554 29.3332 12.4221 28.9829 10.7998 28.2825C9.17762 27.5821 7.76651 26.6323 6.56651 25.4332C5.36651 24.2341 4.41673 22.8229 3.71717 21.1998C3.01762 19.5767 2.66739 17.8434 2.66651 15.9998C2.66562 14.1563 3.01584 12.4229 3.71717 10.7998C4.41851 9.17673 5.36828 7.76562 6.56651 6.5665C7.76473 5.36739 9.17584 4.41762 10.7998 3.71717C12.4238 3.01673 14.1572 2.6665 15.9998 2.6665C17.8425 2.6665 19.5758 3.01673 21.1998 3.71717C22.8238 4.41762 24.235 5.36739 25.4332 6.5665C26.6314 7.76562 27.5816 9.17673 28.2838 10.7998C28.9861 12.4229 29.3358 14.1563 29.3332 15.9998C29.3305 17.8434 28.9803 19.5767 28.2825 21.1998C27.5847 22.8229 26.635 24.2341 25.4332 25.4332C24.2314 26.6323 22.8203 27.5825 21.1998 28.2838C19.5794 28.9852 17.8461 29.3349 15.9998 29.3332ZM15.9998 26.6665C18.9776 26.6665 21.4998 25.6332 23.5665 23.5665C25.6332 21.4998 26.6665 18.9776 26.6665 15.9998C26.6665 13.0221 25.6332 10.4998 23.5665 8.43317C21.4998 6.3665 18.9776 5.33317 15.9998 5.33317C13.0221 5.33317 10.4998 6.3665 8.43317 8.43317C6.36651 10.4998 5.33317 13.0221 5.33317 15.9998C5.33317 18.9776 6.36651 21.4998 8.43317 23.5665C10.4998 25.6332 13.0221 26.6665 15.9998 26.6665ZM15.9998 23.9998C13.7776 23.9998 11.8887 23.2221 10.3332 21.6665C8.77762 20.1109 7.99984 18.2221 7.99984 15.9998C7.99984 13.7776 8.77762 11.8887 10.3332 10.3332C11.8887 8.77762 13.7776 7.99984 15.9998 7.99984C18.2221 7.99984 20.111 8.77762 21.6665 10.3332C23.2221 11.8887 23.9998 13.7776 23.9998 15.9998C23.9998 18.2221 23.2221 20.1109 21.6665 21.6665C20.111 23.2221 18.2221 23.9998 15.9998 23.9998ZM15.9998 21.3332C17.4665 21.3332 18.7221 20.8109 19.7665 19.7665C20.8109 18.7221 21.3332 17.4665 21.3332 15.9998C21.3332 14.5332 20.8109 13.2776 19.7665 12.2332C18.7221 11.1887 17.4665 10.6665 15.9998 10.6665C14.5332 10.6665 13.2776 11.1887 12.2332 12.2332C11.1887 13.2776 10.6665 14.5332 10.6665 15.9998C10.6665 17.4665 11.1887 18.7221 12.2332 19.7665C13.2776 20.8109 14.5332 21.3332 15.9998 21.3332ZM15.9998 18.6665C15.2665 18.6665 14.639 18.4056 14.1172 17.8838C13.5954 17.3621 13.3341 16.7341 13.3332 15.9998C13.3323 15.2656 13.5936 14.6381 14.1172 14.1172C14.6407 13.5963 15.2683 13.3349 15.9998 13.3332C16.7314 13.3314 17.3594 13.5927 17.8838 14.1172C18.4083 14.6416 18.6692 15.2692 18.6665 15.9998C18.6638 16.7305 18.403 17.3585 17.8838 17.8838C17.3647 18.4092 16.7367 18.6701 15.9998 18.6665Z" fill="currentColor"/>
</svg>
