<svg width="31" height="31" viewBox="0 0 31 31" fill="none" xmlns="http://www.w3.org/2000/svg">
<path d="M15.5002 2.5835C8.36629 2.5835 2.5835 8.36629 2.5835 15.5002C2.5835 22.634 8.36629 28.4168 15.5002 28.4168C22.634 28.4168 28.4168 22.634 28.4168 15.5002C28.4168 8.36629 22.634 2.5835 15.5002 2.5835Z" stroke="currentColor" stroke-width="1.5" stroke-linecap="round" stroke-linejoin="round"/>
<path d="M5.51709 23.6969C5.51709 23.6969 8.39621 20.0208 15.5004 20.0208C22.6045 20.0208 25.485 23.6969 25.485 23.6969M15.5004 15.5C16.5281 15.5 17.5137 15.0917 18.2404 14.365C18.9671 13.6383 19.3754 12.6527 19.3754 11.625C19.3754 10.5973 18.9671 9.61166 18.2404 8.88496C17.5137 8.15826 16.5281 7.75 15.5004 7.75C14.4727 7.75 13.487 8.15826 12.7603 8.88496C12.0336 9.61166 11.6254 10.5973 11.6254 11.625C11.6254 12.6527 12.0336 13.6383 12.7603 14.365C13.487 15.0917 14.4727 15.5 15.5004 15.5Z" stroke="currentColor" stroke-width="1.5" stroke-linecap="round" stroke-linejoin="round"/>
</svg>
