<svg width="16" height="16" viewBox="0 0 16 16" fill="none" xmlns="http://www.w3.org/2000/svg">
<g clip-path="url(#clip0_56_245)">
<path fill-rule="evenodd" clip-rule="evenodd" d="M5.90481 0.280021C7.47808 -0.147156 9.14431 -0.0834895 10.6804 0.462495C12.2165 1.00848 13.5491 2.01072 14.4998 3.33502V1.75002C14.4998 1.55111 14.5788 1.36034 14.7195 1.21969C14.8601 1.07904 15.0509 1.00002 15.2498 1.00002C15.4487 1.00002 15.6395 1.07904 15.7801 1.21969C15.9208 1.36034 15.9998 1.55111 15.9998 1.75002V6.00002H11.7498C11.5509 6.00002 11.3601 5.921 11.2195 5.78035C11.0788 5.6397 10.9998 5.44893 10.9998 5.25002C10.9998 5.05111 11.0788 4.86034 11.2195 4.71969C11.3601 4.57904 11.5509 4.50002 11.7498 4.50002H13.4768C12.6935 3.27451 11.5218 2.34713 10.1491 1.86625C8.7764 1.38537 7.2821 1.37877 5.90523 1.84752C4.52836 2.31626 3.34849 3.23325 2.55437 4.4518C1.76025 5.67035 1.39777 7.12003 1.52491 8.56893C1.65206 10.0178 2.26149 11.3822 3.25571 12.4438C4.24992 13.5055 5.57147 14.2029 7.00894 14.4247C8.4464 14.6465 9.91671 14.3797 11.1847 13.6671C12.4526 12.9545 13.4449 11.8372 14.0028 10.494C14.039 10.4009 14.0935 10.3159 14.163 10.2442C14.2325 10.1724 14.3156 10.1152 14.4075 10.076C14.4995 10.0368 14.5983 10.0164 14.6982 10.0159C14.7981 10.0154 14.8971 10.0349 14.9894 10.0732C15.0817 10.1115 15.1654 10.1679 15.2356 10.239C15.3058 10.3101 15.361 10.3945 15.3982 10.4873C15.4353 10.58 15.4535 10.6793 15.4517 10.7792C15.4499 10.8791 15.4282 10.9776 15.3878 11.069C14.8666 12.3236 14.0345 13.4247 12.97 14.2687C11.9055 15.1126 10.6436 15.6716 9.30323 15.8929C7.96289 16.1142 6.58827 15.9906 5.30894 15.5336C4.02962 15.0766 2.88773 14.3014 1.99092 13.281C1.09412 12.2606 0.471931 11.0286 0.183015 9.70118C-0.105901 8.37377 -0.0520297 6.99464 0.339551 5.69381C0.731131 4.39298 1.44752 3.21329 2.42119 2.26595C3.39486 1.3186 4.59374 0.635808 5.90481 0.280021Z" fill="#757575"/>
</g>
<defs>
<clipPath id="clip0_56_245">
<rect width="16" height="16" fill="white"/>
</clipPath>
</defs>
</svg>
