<svg width="18" height="18" viewBox="0 0 18 18" fill="none" xmlns="http://www.w3.org/2000/svg">
<path d="M8.375 1.37158H2.25C1.78587 1.37158 1.34075 1.55596 1.01256 1.88415C0.684374 2.21233 0.5 2.65745 0.5 3.12158V15.3716C0.5 15.8357 0.684374 16.2808 1.01256 16.609C1.34075 16.9372 1.78587 17.1216 2.25 17.1216H14.5C14.9641 17.1216 15.4092 16.9372 15.7374 16.609C16.0656 16.2808 16.25 15.8357 16.25 15.3716V9.24658" stroke="#4b5563" stroke-linecap="round" stroke-linejoin="round"/>
<path d="M13.9532 1.04366C14.3013 0.695559 14.7734 0.5 15.2657 0.5C15.758 0.5 16.2301 0.695559 16.5782 1.04366C16.9263 1.39175 17.1219 1.86387 17.1219 2.35616C17.1219 2.84844 16.9263 3.32056 16.5782 3.66866L8.69183 11.5559C8.48406 11.7635 8.22739 11.9155 7.94546 11.9978L5.43158 12.7328C5.35629 12.7547 5.27648 12.7561 5.2005 12.7366C5.12453 12.7171 5.05518 12.6776 4.99972 12.6221C4.94426 12.5667 4.90473 12.4973 4.88527 12.4214C4.86581 12.3454 4.86712 12.2656 4.88908 12.1903L5.62408 9.6764C5.70679 9.3947 5.85905 9.13833 6.06683 8.93091L13.9532 1.04366Z" stroke="#4b5563" stroke-linecap="round" stroke-linejoin="round"/>
</svg>
