<svg width="18" height="20" viewBox="0 0 18 20" fill="none" xmlns="http://www.w3.org/2000/svg">
<path d="M16.0833 6.91667L14.2546 17.3172C14.18 17.7419 13.958 18.1268 13.6277 18.4041C13.2975 18.6814 12.88 18.8334 12.4488 18.8333H5.05125C4.62 18.8334 4.20253 18.6814 3.87226 18.4041C3.54198 18.1268 3.32002 17.7419 3.24542 17.3172L1.41667 6.91667M17 4.16667H11.8438M11.8438 4.16667V2.33333C11.8438 1.8471 11.6506 1.38079 11.3068 1.03697C10.963 0.693154 10.4966 0.5 10.0104 0.5H7.48958C7.00335 0.5 6.53704 0.693154 6.19322 1.03697C5.8494 1.38079 5.65625 1.8471 5.65625 2.33333V4.16667M11.8438 4.16667H5.65625M0.5 4.16667H5.65625" stroke="#4b5563" stroke-linecap="round" stroke-linejoin="round"/>
</svg>
